<mxfile host="app.diagrams.net" agent="Mozilla/5.0 (Windows NT 10.0; Win64; x64; rv:139.0) Gecko/20100101 Firefox/139.0" version="27.1.5">
  <diagram name="Page-1" id="Ld59MNCtfa-pyDh8cjdV">
    <mxGraphModel dx="1489" dy="941" grid="1" gridSize="10" guides="1" tooltips="1" connect="1" arrows="1" fold="1" page="1" pageScale="1" pageWidth="1169" pageHeight="827" math="0" shadow="0">
      <root>
        <mxCell id="0" />
        <mxCell id="1" parent="0" />
        <mxCell id="8XO_jOaaJAtEhVWyUDEs-1" value="&lt;font style=&quot;font-size: 90px;&quot;&gt;M&lt;/font&gt;" style="ellipse;whiteSpace=wrap;html=1;aspect=fixed;" vertex="1" parent="1">
          <mxGeometry x="440" y="30" width="289" height="289" as="geometry" />
        </mxCell>
        <mxCell id="8XO_jOaaJAtEhVWyUDEs-2" value="&lt;font style=&quot;font-size: 90px;&quot;&gt;X&lt;/font&gt;" style="ellipse;whiteSpace=wrap;html=1;aspect=fixed;" vertex="1" parent="1">
          <mxGeometry x="90" y="420" width="289" height="289" as="geometry" />
        </mxCell>
        <mxCell id="8XO_jOaaJAtEhVWyUDEs-3" value="&lt;font style=&quot;font-size: 90px;&quot;&gt;Y&lt;/font&gt;" style="ellipse;whiteSpace=wrap;html=1;aspect=fixed;" vertex="1" parent="1">
          <mxGeometry x="790" y="420" width="289" height="289" as="geometry" />
        </mxCell>
        <mxCell id="8XO_jOaaJAtEhVWyUDEs-7" value="" style="endArrow=classic;html=1;rounded=0;entryX=0;entryY=1;entryDx=0;entryDy=0;strokeWidth=5;" edge="1" parent="1" source="8XO_jOaaJAtEhVWyUDEs-2" target="8XO_jOaaJAtEhVWyUDEs-1">
          <mxGeometry width="50" height="50" relative="1" as="geometry">
            <mxPoint x="570" y="450" as="sourcePoint" />
            <mxPoint x="620" y="400" as="targetPoint" />
          </mxGeometry>
        </mxCell>
        <mxCell id="8XO_jOaaJAtEhVWyUDEs-8" value="" style="endArrow=classic;html=1;rounded=0;entryX=0.171;entryY=0.115;entryDx=0;entryDy=0;exitX=1;exitY=1;exitDx=0;exitDy=0;strokeWidth=4;entryPerimeter=0;" edge="1" parent="1" source="8XO_jOaaJAtEhVWyUDEs-1" target="8XO_jOaaJAtEhVWyUDEs-3">
          <mxGeometry width="50" height="50" relative="1" as="geometry">
            <mxPoint x="570" y="450" as="sourcePoint" />
            <mxPoint x="620" y="400" as="targetPoint" />
          </mxGeometry>
        </mxCell>
        <mxCell id="8XO_jOaaJAtEhVWyUDEs-9" value="" style="endArrow=classic;html=1;rounded=0;exitX=1;exitY=0.5;exitDx=0;exitDy=0;entryX=0;entryY=0.5;entryDx=0;entryDy=0;strokeWidth=5;" edge="1" parent="1" source="8XO_jOaaJAtEhVWyUDEs-2" target="8XO_jOaaJAtEhVWyUDEs-3">
          <mxGeometry width="50" height="50" relative="1" as="geometry">
            <mxPoint x="570" y="450" as="sourcePoint" />
            <mxPoint x="620" y="400" as="targetPoint" />
          </mxGeometry>
        </mxCell>
        <mxCell id="8XO_jOaaJAtEhVWyUDEs-10" value="&lt;font style=&quot;font-size: 80px;&quot;&gt;a&lt;/font&gt;" style="text;html=1;align=center;verticalAlign=middle;resizable=0;points=[];autosize=1;strokeColor=none;fillColor=none;rotation=-45;" vertex="1" parent="1">
          <mxGeometry x="309" y="270" width="70" height="110" as="geometry" />
        </mxCell>
        <mxCell id="8XO_jOaaJAtEhVWyUDEs-11" value="&lt;font style=&quot;font-size: 80px;&quot;&gt;b&lt;/font&gt;" style="text;html=1;align=center;verticalAlign=middle;resizable=0;points=[];autosize=1;strokeColor=none;fillColor=none;rotation=51;" vertex="1" parent="1">
          <mxGeometry x="769.9996103067892" y="269.9996103067893" width="70" height="110" as="geometry" />
        </mxCell>
        <mxCell id="8XO_jOaaJAtEhVWyUDEs-12" value="&lt;font style=&quot;font-size: 80px;&quot;&gt;c&#39;&lt;/font&gt;" style="text;html=1;align=center;verticalAlign=middle;resizable=0;points=[];autosize=1;strokeColor=none;fillColor=none;rotation=0;" vertex="1" parent="1">
          <mxGeometry x="564.9996103067894" y="459.99961030678935" width="80" height="110" as="geometry" />
        </mxCell>
      </root>
    </mxGraphModel>
  </diagram>
</mxfile>
